<?xml version="1.0" encoding="utf-8"?>
<!DOCTYPE svg PUBLIC "-//W3C//DTD SVG 1.1//EN" "http://www.w3.org/Graphics/SVG/1.1/DTD/svg11.dtd">
<svg version="1.1" xmlns="http://www.w3.org/2000/svg" x="0px" y="0px" width="512px" height="512px" viewBox="0 0 512 512">
  <rect x="16" y="16" width="480" height="480" rx="10" ry="10" stroke="black" fill="white" stroke-width="16"/>
  <rect x="48" y="48" width="416" height="416" rx="10" ry="10" stroke="black" fill="transparent" stroke-width="16"/>
  <rect x="16" y="96" width="64" height="64" stroke="black" fill="white" stroke-width="16"/>
  <rect x="16" y="352" width="64" height="64" stroke="black" fill="white" stroke-width="16"/>
  <path d="M 416 245 a 90 90 0 1 0 -128 0 v 112 a 64 64 0 0 0 128 0 Z" fill="black"/>
  <path d="M 408 357 V 241 a 82 82 0 0 0 -8 -126 V 386 a 56 56 0 0 0 8 -29 M 296 357 V 241 a 82 82 0 0 1 8 -126 V 386 a 56 56 0 0 1 -8 -29" fill="white"/>
  <path d="M 381 125 h -12 a 16 16 0 0 0 -16 16 v 80 a 16 16 0 0 1 -16 16 h -12 M 338 176 h 30" stroke="white" fill-opacity="0" stroke-width="16" stroke-linecap="round"/>
  <ellipse cx="128" cy="192" rx="20" ry="12" fill="black"/>
  <ellipse cx="176" cy="192" rx="20" ry="12" fill="black"/>
  <ellipse cx="224" cy="192" rx="20" ry="12" fill="black"/>
  <ellipse cx="128" cy="224" rx="20" ry="12" fill="black"/>
  <ellipse cx="176" cy="224" rx="20" ry="12" fill="black"/>
  <ellipse cx="224" cy="224" rx="20" ry="12" fill="black"/>
  <ellipse cx="128" cy="256" rx="20" ry="12" fill="black"/>
  <ellipse cx="176" cy="256" rx="20" ry="12" fill="black"/>
  <ellipse cx="224" cy="256" rx="20" ry="12" fill="black"/>
  <ellipse cx="176" cy="288" rx="20" ry="12" fill="black"/>
  <path d="M 75 500 a 30 30 0 0 0 60 0 Z" stroke="black" fill="black"/>
  <path d="M 377 500 a 30 30 0 0 0 60 0 Z" stroke="black" fill="black"/>
</svg>
