<?xml version="1.0" encoding="utf-8"?>
<!DOCTYPE svg PUBLIC "-//W3C//DTD SVG 1.1//EN" "http://www.w3.org/Graphics/SVG/1.1/DTD/svg11.dtd">
<svg version="1.1" xmlns="http://www.w3.org/2000/svg" x="0px" y="0px" width="512px" height="512px" viewBox="0 0 512 512">
  <mask id="mask">
    <rect x="0" y="144" width="512" height="16" fill="white"/>
    <rect x="0" y="176" width="512" height="256" fill="white"/>
  </mask>
  <rect x="104" y="152" width="304" height="288" rx="10" ry="10" stroke="black" fill="white" stroke-width="16"/>
  <rect x="136" y="184" width="240" height="224" rx="10" ry="10" stroke="black" fill="black" stroke-width="16"/>
  <rect x="104" y="212" width="64" height="64" stroke="black" fill="white" stroke-width="16"/>
  <rect x="104" y="324" width="64" height="64" stroke="black" fill="white" stroke-width="16"/>
  <path d="M 280 64 v 240 l 56 -56 l 11.3 11.3 l -75.3 75.3 l -75.3 -75.3 l 11.3 -11.3 l 56 56 v -240 z" fill="black"/>
  <path d="M 280 64 v 240 l 56 -56 l 11.3 11.3 l -75.3 75.3 l -75.3 -75.3 l 11.3 -11.3 l 56 56 v -240 z" fill="white" mask="url(#mask)"/>
</svg>
