<?xml version="1.0" encoding="utf-8"?>
<!DOCTYPE svg PUBLIC "-//W3C//DTD SVG 1.1//EN" "http://www.w3.org/Graphics/SVG/1.1/DTD/svg11.dtd">
<svg height="512px" width="512px" xmlns="http://www.w3.org/2000/svg" viewBox="0 0 512 512">
    <g transform="translate(72 128) scale(0.6)">
        <path d="M499.677 426.489a8.017 8.017 0 0 0 8.017-8.017V84.977c0-2.1-.862-4.183-2.347-5.668l-76.96-76.96A8.113 8.113 0 0 0 422.716 0H106.324C92.473 0 81.205 11.268 81.205 25.119v9.086H12.261c-6.987 0-10.615 8.738-5.669 13.685l62.741 62.741-62.741 62.74c-4.946 4.947-1.319 13.685 5.669 13.685h68.944v299.825c0 13.851 11.268 25.119 25.119 25.119h376.251c13.851 0 25.119-11.268 25.119-25.119v-34.205a8.017 8.017 0 0 0-8.017-8.017 8.017 8.017 0 0 0-8.017 8.017v34.205c0 5.01-4.076 9.086-9.086 9.086h-376.25c-5.01 0-9.086-4.076-9.086-9.086V187.056h51.841c4.428 0 8.017-3.589 8.017-8.017s-3.588-8.017-8.017-8.017H31.615l54.724-54.724a8.016 8.016 0 0 0 0-11.337L31.615 50.238h348.88v120.785H183.284c-4.428 0-8.017 3.589-8.017 8.017s3.588 8.017 8.017 8.017h205.228a8.017 8.017 0 0 0 8.017-8.017V42.221a8.017 8.017 0 0 0-8.017-8.017H97.238v-9.086c0-5.01 4.076-9.086 9.086-9.086H414.7v51.841c0 13.851 11.268 25.119 25.119 25.119h51.841V418.47a8.016 8.016 0 0 0 8.017 8.019zM439.819 76.96c-5.01 0-9.086-4.076-9.086-9.086V27.37l49.589 49.59h-40.503z"/>
        <path d="M191.835 128.267h-17.637V92.994h17.637c4.428 0 8.017-3.589 8.017-8.017s-3.588-8.017-8.017-8.017h-25.653a8.017 8.017 0 0 0-8.017 8.017v51.307a8.017 8.017 0 0 0 8.017 8.017h25.653c4.428 0 8.017-3.589 8.017-8.017s-3.588-8.017-8.017-8.017zM243.142 102.614h-17.637v-9.62h17.637c4.428 0 8.017-3.589 8.017-8.017s-3.588-8.017-8.017-8.017h-25.653a8.017 8.017 0 0 0-8.017 8.017v25.653a8.017 8.017 0 0 0 8.017 8.017h17.637v9.62h-17.637c-4.428 0-8.017 3.589-8.017 8.017s3.588 8.017 8.017 8.017h25.653a8.017 8.017 0 0 0 8.017-8.017V110.63a8.016 8.016 0 0 0-8.017-8.016zM305.536 77.372c-4.145-1.382-8.76.925-10.141 5.071l-9.497 28.49-9.497-28.49a8.016 8.016 0 0 0-10.141-5.071 8.016 8.016 0 0 0-5.07 10.141l17.102 51.307a8.015 8.015 0 0 0 15.21 0l17.102-51.307c1.382-4.145-.924-8.759-5.068-10.141zM414.165 213.779H174.733c-9.136 0-16.568 7.432-16.568 16.568v222.33c0 9.136 7.432 16.568 16.568 16.568h239.432c9.136 0 16.568-7.432 16.568-16.568v-222.33c0-9.136-7.432-16.568-16.568-16.568zm.535 238.897c0 .295-.24.534-.534.534H174.733a.535.535 0 0 1-.534-.534v-222.33c0-.295.24-.534.534-.534h239.432c.294 0 .534.239.534.534v222.33z"/>
        <path d="M243.142 256.534h-34.205c-4.428 0-8.017 3.589-8.017 8.017s3.588 8.017 8.017 8.017h34.205c4.428 0 8.017-3.589 8.017-8.017s-3.588-8.017-8.017-8.017zM379.961 256.534H277.347c-4.428 0-8.017 3.589-8.017 8.017s3.588 8.017 8.017 8.017h102.614c4.428 0 8.017-3.589 8.017-8.017s-3.589-8.017-8.017-8.017zM243.142 307.841h-34.205c-4.428 0-8.017 3.589-8.017 8.017s3.588 8.017 8.017 8.017h34.205c4.428 0 8.017-3.589 8.017-8.017s-3.588-8.017-8.017-8.017zM379.961 307.841H277.347c-4.428 0-8.017 3.589-8.017 8.017s3.588 8.017 8.017 8.017h102.614c4.428 0 8.017-3.589 8.017-8.017s-3.589-8.017-8.017-8.017zM243.142 359.148h-34.205a8.017 8.017 0 0 0-8.017 8.017 8.017 8.017 0 0 0 8.017 8.017h34.205a8.017 8.017 0 0 0 8.017-8.017 8.017 8.017 0 0 0-8.017-8.017zM303 359.148h-25.653a8.017 8.017 0 0 0-8.017 8.017 8.017 8.017 0 0 0 8.017 8.017H303a8.017 8.017 0 0 0 8.017-8.017 8.017 8.017 0 0 0-8.017-8.017zM243.142 410.455h-34.205a8.017 8.017 0 0 0-8.017 8.017 8.017 8.017 0 0 0 8.017 8.017h34.205a8.017 8.017 0 0 0 8.017-8.017 8.016 8.016 0 0 0-8.017-8.017zM303 410.455h-25.653a8.017 8.017 0 0 0-8.017 8.017 8.017 8.017 0 0 0 8.017 8.017H303a8.017 8.017 0 0 0 8.017-8.017 8.016 8.016 0 0 0-8.017-8.017zM369.018 392.818l17.101-20.522a8.019 8.019 0 0 0-1.026-11.291 8.02 8.02 0 0 0-11.291 1.026l-15.219 18.263-15.219-18.263a8.018 8.018 0 0 0-12.317 10.265l17.101 20.522-17.101 20.522c-2.573 3.087-2.422 7.759.357 10.667 3.263 3.413 8.937 3.225 11.96-.402l15.219-18.263 15.219 18.263c3.023 3.628 8.697 3.815 11.96.402 2.78-2.907 2.93-7.578.357-10.667l-17.101-20.522z"/>
    </g>
    <path d="M 280 304 v -240 l 56 56 l 11.3 -11.3 l -75.3 -75.3 l -75.3 75.3 l 11.3 11.3 l 56 -56 v 240 z" fill="black"/>
</svg>
